PathFileType	4	(X/Y/Z)	path1_16_0-584.trc
DataRate	CameraRate	NumFrames	NumMarkers	Units	OrigDataRate	OrigDataStartFrame	OrigNumFrames
30	30	9	22	m	30	438	584
Frame#	Time	Hip			RHip			RKnee			RAnkle			RBigToe			RSmallToe			RHeel			LHip			LKnee			LAnkle			LBigToe			LSmallToe			LHeel			Neck			Head			Nose			RShoulder			RElbow			RWrist			LShoulder			LElbow			LWrist		
		X1	Y1	Z1	X2	Y2	Z2	X3	Y3	Z3	X4	Y4	Z4	X5	Y5	Z5	X6	Y6	Z6	X7	Y7	Z7	X8	Y8	Z8	X9	Y9	Z9	X10	Y10	Z10	X11	Y11	Z11	X12	Y12	Z12	X13	Y13	Z13	X14	Y14	Z14	X15	Y15	Z15	X16	Y16	Z16	X17	Y17	Z17	X18	Y18	Z18	X19	Y19	Z19	X20	Y20	Z20	X21	Y21	Z21	X22	Y22	Z22
439	14.633333333333333	-0.22680283892383035	0.8166984790383562	0.6198642548613605	-0.2489908203945037	0.7862910640867363	0.5233571186132863	-0.3834121075591557	0.45641725730827093	0.5370774635842839	-0.47408119336485804	0.10214059775755703	0.5731430657036818	-0.6693946970775733	0.06881800464439157	0.5604881167716326	-0.6393708428777592	0.050296873681147235	0.5199289954186674	-0.4506165501978547	0.03025818599769135	0.5798384543478055	-0.20344372970544627	0.7807943787226632	0.7130323299885468	-0.12144134861903683	0.4489730332819201	0.6907329209881744	0.11135276633052413	0.16323363832765334	0.6546266900806845	-0.01264388063231318	0.011215696834761164	0.662053824974061	0.02572254430501202	0.024369361137003873	0.7080575846537553	0.18450776617687245	0.12783060006221622	0.6376878168647792	-0.2608839690699439	1.4313050618797454	0.6359306178742937	-0.3152089107528403	1.6707213494297575	0.6233740555634745	-0.3874847545407507	1.5424069415730166	0.6236014008611819	-0.23254971902934513	1.3378823129749189	0.43565950156020755	-0.12617041963589895	1.070680388015602	0.4165249853571738	-0.1327100688458371	0.826747659196996	0.37903651968574886	-0.256660718846178	1.327493378745788	0.816595360944859	-0.30735620520835377	1.0621040354083209	0.8601629374083422	-0.44691829309775954	0.8601149216710382	0.849350607017294
440	14.666666666666666	-0.26958133843495224	0.8170728751391089	0.6179186386457237	-0.288778723830691	0.7880340399112762	0.5225845452187301	-0.4120486176050479	0.4525836719288182	0.5372768576987919	-0.4854918453090558	0.09693879502369813	0.5783978839891132	-0.6763856893354941	0.055658782259841444	0.5629531720574039	-0.6478172893939232	0.036522356622422654	0.5247237259956234	-0.45656369450966583	0.027338188658575388	0.5862278555817434	-0.2495059480633477	0.782338744617661	0.7114650772309716	-0.18583998683476052	0.44661543563954487	0.6948366319504138	0.07421620247970284	0.18618524969317565	0.6595986437279844	-0.01850561529565892	0.011529426504316726	0.6660408715385155	0.017328065120172813	0.026479904739548414	0.7122886010820051	0.15360217387940558	0.16142586342741758	0.6463088229438422	-0.3003734017242408	1.4323560897658631	0.634392210295468	-0.3651418745449263	1.674494213609782	0.6253568369829727	-0.4029025976574475	1.538570060681487	0.5943906657518286	-0.2722011748372795	1.3378480367939507	0.4337993584488271	-0.17012443150036546	1.0679311705960024	0.4151151940397539	-0.18091300528984142	0.8233176309237518	0.3775133325368171	-0.29690774654081864	1.3300763156065063	0.8121696471128745	-0.33761789500195943	1.0625796121868052	0.8556744896369568	-0.4715619202427765	0.8559002205467879	0.8482537243278657
441	14.7	-0.31262259826368743	0.8189899938376106	0.6166505676794055	-0.32788075191484256	0.7907622213681704	0.5223579025682084	-0.43806584446835173	0.45138592781007664	0.5375796777461288	-0.4921422644102941	0.0932847985516591	0.5815909753330342	-0.6797852028231636	0.04359124845216811	0.5656390533607961	-0.6506104070216364	0.024778527832939	0.5274816167983439	-0.45961427438040614	0.025818600811201006	0.5926769003849526	-0.29620687277596297	0.7849353344108299	0.7102026581708529	-0.25867961758354524	0.44459331948891895	0.7003662916420795	0.023362409592210732	0.20999184675658306	0.6666337562938546	-0.0367638698672398	0.014164177354877927	0.672644111917098	-0.0029951468533988158	0.030486894477942863	0.7174295838165001	0.10788078016480891	0.19473654180732927	0.6567860967991923	-0.3391171808937659	1.4345629425326503	0.632639550602004	-0.4100267371895095	1.678963048139049	0.6235110344840089	-0.4176018162339095	1.5352726988384853	0.5644704734626377	-0.31223195703006107	1.3391040377436774	0.43173245245632924	-0.2174290994706434	1.0656996114952932	0.41358025294635214	-0.23338390423208777	0.8210319798334644	0.3758002630411882	-0.3352072725380252	1.3334881381352832	0.8088405419461886	-0.3649904325148431	1.0636667073831565	0.8513715816474912	-0.4920579197216961	0.852116249642014	0.8482845486675175
442	14.733333333333333	-0.3552284106415061	0.8219890953867977	0.6164631136237791	-0.3660170728747662	0.7938157252823546	0.5227886333039946	-0.46096504384111375	0.451919039797541	0.5380174635621223	-0.4953960868599077	0.09125679541465374	0.5830352775056996	-0.681219053742688	0.03335187030967101	0.5686329837071255	-0.6495083198028482	0.0159554398919295	0.5284891190783378	-0.46099053380747385	0.025513123377572288	0.5981122261696983	-0.342554034147254	0.7880546969813464	0.7095526503164922	-0.33571962590290194	0.44493376308674026	0.7050389317906577	-0.040102831897876404	0.23124110523906338	0.6752791673416805	-0.0734464334208353	0.019734313954488797	0.6814663247922855	-0.04086930770223794	0.03695525483118616	0.7234456389137025	0.04720180018053137	0.22249678489486738	0.6679153921231572	-0.3767527907907257	1.4375340707998987	0.6306176452962576	-0.44961493828960536	1.683449811870103	0.6202713994822845	-0.4376923300928622	1.5334746757761695	0.5410459802774203	-0.35213070340308367	1.3415057489019726	0.43000858757115973	-0.26778350330140177	1.0639099196028385	0.4122799965666527	-0.28972002342291886	0.8201980737531206	0.37447420364730943	-0.37092334655358145	1.3368854881595456	0.8071696364279607	-0.3897777888281159	1.0648253233908282	0.847883484874765	-0.5092414278838483	0.8490799671037319	0.8490349304644986
443	14.766666666666667	-0.39690215700060044	0.8255564113980814	0.6176313579103767	-0.4032121110348329	0.7966024983963758	0.5240949144505195	-0.480734044546318	0.45350632213294706	0.5386881263444446	-0.4962369310443303	0.09055472545070678	0.5833297611386764	-0.6817036424803133	0.025266923469158768	0.5715977962730739	-0.6463576733896597	0.00997884358986842	0.5285580151012823	-0.4607234580542134	0.02569385158049424	0.6013376625909089	-0.3878023993017024	0.7912274144548151	0.7098945767003442	-0.4132505234985817	0.44939850570554307	0.7072377769118121	-0.11361617945606024	0.24638608549168514	0.6846733697271064	-0.1334512154980521	0.027942936279565053	0.6918669636788733	-0.10072582104465409	0.04541643718327242	0.7303556618277764	-0.027190205647259293	0.2399415714059147	0.6785968410903253	-0.4130535100869507	1.440842213111817	0.6284142578834332	-0.4845865375578729	1.6874075855106048	0.6178802503696474	-0.4660760911010962	1.5336367222945366	0.5277383772574202	-0.3913171139485022	1.3448711608336157	0.42925132528641163	-0.3207207145094483	1.0627636778117784	0.4111735375748438	-0.3496483077354555	0.8209018079851169	0.3740670758348845	-0.4041329729264594	1.3397842451710544	0.8070725007624875	-0.41265183130459093	1.065877734362655	0.8457209867298384	-0.5237432260600853	0.8468226161675985	0.8500394562488225
444	14.8	-0.43713365700100926	0.8293399551169185	0.6200843855737768	-0.43935612240227473	0.7989039328623688	0.5263060983179142	-0.4980109789841459	0.4561543245063695	0.5397115310746694	-0.49573377455391204	0.09089716912878437	0.5832447541767131	-0.6818108487321877	0.01950792546505133	0.5740499765156459	-0.6427446951746987	0.006373714090763383	0.5285371558383718	-0.4589447030575902	0.0258240271183679	0.6017717717040029	-0.4312895798217861	0.7942542185787083	0.7115426430008677	-0.4889336629573137	0.4585669319996305	0.7073187540910864	-0.19438669962439775	0.25265619269426537	0.6939640149453911	-0.21836728711469885	0.037068642647181606	0.7030498397315936	-0.18440048732288	0.05384370866461073	0.7384546617671953	-0.11303592854076865	0.244006052256925	0.6880773797273881	-0.44803678786772494	1.4441170355917303	0.6262650635445194	-0.517073817735333	1.6905866002127747	0.6171798480706504	-0.5002195640521692	1.5351692261590633	0.5221714872675907	-0.4293257518717098	1.3489468067946642	0.42979653165994214	-0.37546963438867126	1.0628700556438062	0.40964405949370275	-0.4128730640515366	0.82314078182038	0.3747238210348064	-0.4355211449210153	1.3420922860992697	0.8080543124577422	-0.4343702210486011	1.0670800233109063	0.845193871327748	-0.5355051593951738	0.8450928966588511	0.8510924994935298
445	14.833333333333334	-0.4752799546686442	0.8331145335473842	0.6232998285663086	-0.4738373567054186	0.8009678978785688	0.5289687938034582	-0.5137146408200527	0.45989284034843353	0.540958829382673	-0.49493962272428405	0.0921437176375371	0.5834107813881728	-0.6818743801843657	0.015912185505593295	0.5756553457118794	-0.6395610318431123	0.004630396527587891	0.5288366298770354	-0.45644688436798914	0.025919342478968446	0.5999820735570831	-0.4722713780047505	0.7972500771229166	0.7145585839117554	-0.5606206597512811	0.4712848199606359	0.707097115288793	-0.28063147184194137	0.24867683310552222	0.7029147405750165	-0.32552069142649015	0.04428605667125053	0.7141808380041647	-0.28994465264336716	0.05958416942614498	0.7481471360330662	-0.20787405014199514	0.2336294403825841	0.6961147486342836	-0.48207002313552316	1.4470678173944218	0.6244984391436402	-0.5495044333165492	1.6929503023090595	0.617839942106709	-0.5345498897136658	1.536759342913444	0.5186637335375563	-0.46599330400989164	1.3532905338521666	0.4314575585400463	-0.4308495579210516	1.064869009179973	0.4070468578820003	-0.4786734694881983	0.8268844051201836	0.37611978205376867	-0.4660437589564745	1.3439086574216796	0.8096398200919805	-0.45555919363487174	1.0688958984121626	0.8463229451692609	-0.5439153333328575	0.8434542793648026	0.8523892303879248
446	14.866666666666667	-0.5108242195214279	0.8365903201769291	0.6264701848478255	-0.5058324094482037	0.8031904437523367	0.5312597592532078	-0.528379968377874	0.46411221840647404	0.5422828479165027	-0.4945133786592392	0.09397507209291094	0.5840575120636358	-0.6820183995373033	0.013935087901627398	0.5763707039179	-0.6370410721405783	0.0042951183218227626	0.5294396364445466	-0.45434148338772706	0.026336790917606195	0.5974046891128992	-0.5101408789153936	0.800423089056286	0.7185505632300163	-0.6256130959922259	0.48492738365734406	0.7082039064294354	-0.3719056481853477	0.23484790415082113	0.7120464040634252	-0.448574516968701	0.04744369020524413	0.7241907107964765	-0.41151687413667104	0.060952506912190174	0.75921485415794	-0.3098233317331783	0.20987106547344447	0.7031922386066862	-0.5157647939497089	1.4494327225083872	0.6234583293226997	-0.5833185353325974	1.694576443882902	0.6192088811850389	-0.565674037293308	1.5373932421422183	0.5136766238982038	-0.5015758934575134	1.357289109680493	0.433665572684647	-0.48546641524995676	1.0687267229264474	0.4034484914550361	-0.5458417535767729	0.8319454713682356	0.37779746203551784	-0.49672524019518355	1.3454754662737636	0.8114234456788106	-0.47682163802672933	1.071710882149206	0.8488461608208829	-0.5489111462517756	0.8415110106757954	0.8541447852249666
447	14.9	-0.5437628339005798	0.8393583029628885	0.6289217938988506	-0.5351128925235323	0.8057073340068993	0.5324747957317083	-0.5418962291487899	0.46775490376359663	0.5440147901453343	-0.4946183695237496	0.095600975833453	0.5850933966411832	-0.6820382093539266	0.012979734191655873	0.576474202777353	-0.635084220330737	0.004970983074140919	0.5301870117297003	-0.4534391171954435	0.02729066924937011	0.5955726480789558	-0.5448820772795103	0.8037496047983161	0.7227754401697198	-0.6819339118190307	0.49646916205473185	0.7113003001996006	-0.4681729190417278	0.21342607821783874	0.721877132258448	-0.5794294050489547	0.04703913103882232	0.7323422802670306	-0.5412011837871812	0.058331680560571135	0.7705405078321348	-0.4174501510159917	0.17634062291397035	0.71004715729229	-0.5496743344317864	1.4509261857752407	0.6233691181388072	-0.6190658916316891	1.6956041191741755	0.6208146489030898	-0.5954497276574061	1.5370747888182994	0.5090055741375391	-0.5366879221139623	1.3603575953391693	0.4358496423584432	-0.5381237930148912	1.0734974880213168	0.3995651050138061	-0.6130671367664711	0.8378654083905537	0.3796317716829969	-0.528430172982823	1.3470443090867086	0.8130925032917646	-0.4987848042750211	1.075487039767816	0.8522921753815996	-0.5521563476407597	0.8391283064395388	0.8561982757775866
